# xmcd
#
# Track frame offsets:
#	150
#	18338
#	33558
#	45678
#	59671
#	78017
#	92427
#	108344
#	122837
#	138819
#	153543
#	168471
#	181336
#	193397
#	208233
#	220590
#	233212
#	248827
#	265914
#	275084
#
# Disc length: 3891 seconds
#
# Revision: 0
# Processed by: cddbd v1.4PL0 Copyright (c) Steve Scherf et al.
# Submitted via: audiograbber 1.82.00
#
DISCID=200f3114
DTITLE=Dolly Parton - Queen of Country   Disc Two
DYEAR=2001
DGENRE=Country
TTITLE0=Starting Over Again
TTITLE1=Tie Our Love (In a Double Knot)
TTITLE2=It's My Time
TTITLE3=The Seeker
TTITLE4=The House Of The Rising Sun
TTITLE5=Heartbreak Express
TTITLE6=I Walk The Line
TTITLE7=I Really Got The Feeling
TTITLE8=Detroit City
TTITLE9=It's All Wrong, But It's All Right
TTITLE10=Downtown
TTITLE11=Mama Say A Prayer
TTITLE12=The Last Thing On My Mind (duet with Porter Wagoner)
TTITLE13=Harper Valley PTA
TTITLE14=To Daddy
TTITLE15=D.I.V.O.R.C.E
TTITLE16=Old Flames (Can't Hold A Candle To You)
TTITLE17=The Great Pretender
TTITLE18=We'll Get Ahead Someday (Duet With Porter Wagoner)
TTITLE19=Save The Last Dance For Me
EXTD=
EXTT0=
EXTT1=
EXTT2=
EXTT3=
EXTT4=
EXTT5=
EXTT6=
EXTT7=
EXTT8=
EXTT9=
EXTT10=
EXTT11=
EXTT12=
EXTT13=
EXTT14=
EXTT15=
EXTT16=
EXTT17=
EXTT18=
EXTT19=
PLAYORDER=
